<?xml version="1.0" standalone="no"?>
<!DOCTYPE svg PUBLIC "-//W3C//DTD SVG 20010904//EN"
 "http://www.w3.org/TR/2001/REC-SVG-20010904/DTD/svg10.dtd">
<svg version="1.0" xmlns="http://www.w3.org/2000/svg"
 width="384.000000pt" height="384.000000pt" viewBox="0 0 384.000000 384.000000"
 preserveAspectRatio="xMidYMid meet">
<metadata>
Created by potrace 1.14, written by Peter Selinger 2001-2017
</metadata>
<g transform="translate(0.000000,384.000000) scale(0.100000,-0.100000)"
fill="#000000" stroke="none">
<path d="M1995 3364 c75 -42 102 -92 43 -80 -156 31 -230 40 -328 36 l-55 -2
37 -10 c37 -10 56 -34 40 -50 -5 -5 -45 -4 -96 3 -100 14 -208 3 -297 -31 -53
-19 -118 -59 -77 -46 46 14 119 17 152 6 59 -19 43 -70 -22 -70 -43 0 -135
-24 -198 -51 -90 -40 -253 -159 -216 -159 6 0 14 4 17 10 10 16 111 41 139 34
27 -6 37 -34 12 -34 -36 0 -156 -74 -208 -128 -102 -107 -148 -234 -147 -402
1 -86 2 -90 10 -45 13 79 37 131 80 169 34 31 46 36 89 36 28 0 50 -3 50 -7 0
-4 -16 -43 -35 -88 -59 -139 -78 -239 -72 -390 3 -71 11 -150 19 -174 l13 -44
27 122 c33 151 75 247 113 257 15 4 30 3 35 -2 4 -5 10 -65 13 -134 5 -141 22
-200 74 -259 32 -35 32 -35 18 -6 -31 62 -11 173 38 209 l27 20 28 -20 c23
-18 30 -35 46 -122 11 -56 23 -102 27 -102 4 0 10 13 14 29 3 16 12 35 19 40
14 12 46 5 46 -9 0 -4 20 -30 44 -57 51 -56 127 -97 224 -120 63 -14 163 -43
207 -59 19 -7 19 -7 2 13 -10 11 -57 37 -106 57 -92 38 -138 74 -128 100 9 24
37 20 168 -24 88 -30 138 -41 186 -42 60 -1 70 -4 104 -35 42 -38 68 -86 84
-158 l12 -50 16 32 c25 47 21 118 -8 181 -31 67 -31 80 0 88 38 9 68 -2 107
-40 50 -48 78 -117 95 -226 17 -112 12 -217 -16 -290 -49 -129 -107 -153 -184
-77 -24 23 -51 53 -60 67 -18 25 -18 24 -12 -35 3 -37 17 -84 35 -121 17 -34
30 -64 30 -66 0 -14 -76 -16 -106 -3 -26 11 -35 22 -44 57 -19 69 -37 96 -86
124 -24 14 -47 24 -50 21 -3 -2 4 -22 16 -44 11 -22 26 -62 34 -89 7 -27 17
-57 21 -67 10 -24 -21 -22 -65 4 -45 28 -57 45 -66 93 l-6 40 -15 -28 c-9 -16
-13 -45 -11 -67 l4 -40 -46 7 c-69 10 -209 52 -267 80 -59 28 -83 57 -106 128
-49 145 -147 228 -297 250 l-45 6 62 -39 c74 -48 99 -81 83 -110 -13 -26 -47
-44 -63 -35 -6 4 -28 20 -48 36 -23 18 -59 33 -104 43 -38 8 -71 13 -73 11 -1
-2 13 -13 33 -25 55 -32 44 -54 -30 -64 -202 -27 -284 -99 -285 -247 0 -76
-13 -101 -68 -130 l-37 -19 38 -1 c47 0 47 -14 2 -67 -19 -23 -35 -44 -35 -46
0 -3 26 10 57 29 59 35 91 41 125 23 11 -6 22 -8 26 -5 5 5 -10 102 -25 164
-7 29 26 31 52 2 28 -30 37 -24 33 23 l-3 42 50 17 c61 21 135 23 179 4 30
-13 146 -109 154 -127 2 -5 -8 -11 -23 -15 -28 -7 -55 -39 -55 -65 0 -14 7
-11 29 12 32 32 79 38 126 17 35 -16 31 -25 -12 -33 -45 -8 -69 -27 -94 -77
-26 -51 -24 -56 9 -26 15 14 42 33 61 43 46 23 124 16 154 -14 l21 -21 -60 0
c-72 0 -103 -19 -136 -83 l-20 -41 23 17 c46 34 93 49 154 49 79 1 111 -7 229
-54 271 -109 523 -125 741 -48 44 15 143 50 220 77 77 28 169 62 205 77 55 23
66 24 78 12 19 -19 32 -91 26 -141 -5 -38 -5 -39 11 -20 29 34 45 82 55 161
15 119 54 188 177 316 78 80 104 113 101 130 -5 34 -27 33 -39 -2 -15 -42 -31
-34 -50 26 -9 27 -22 50 -31 52 -17 3 -27 -21 -68 -153 -25 -83 -79 -166 -135
-206 -43 -31 -115 -50 -115 -30 0 6 34 48 76 93 263 286 231 605 -88 878 -193
165 -430 233 -865 249 -207 8 -222 11 -244 52 -14 27 29 71 108 108 37 18 80
39 95 47 46 25 79 18 121 -26 34 -37 77 -53 77 -30 0 6 -4 10 -9 10 -13 0 -51
64 -51 86 0 13 20 30 59 51 84 46 151 114 151 153 0 22 -5 30 -18 30 -24 0
-88 -36 -140 -78 -23 -19 -45 -32 -48 -29 -8 8 16 117 33 151 l16 30 -29 -18
c-45 -29 -70 -54 -90 -92 -10 -18 -21 -34 -24 -34 -3 0 -17 37 -31 83 l-26 82
-13 -44 c-12 -38 -12 -54 4 -130 l18 -86 -49 -42 c-64 -57 -98 -67 -204 -61
-144 9 -183 45 -183 173 0 100 36 176 123 258 103 97 227 156 416 196 115 25
133 20 165 -50 20 -41 22 -54 13 -83 -12 -40 -20 -37 127 -57 104 -14 115 -19
140 -69 24 -47 25 -63 5 -80 -9 -7 -14 -14 -12 -16 1 -2 38 -10 82 -19 44 -9
93 -21 108 -27 45 -18 96 -86 118 -159 l20 -66 34 34 c22 22 42 33 62 33 53 0
216 -138 257 -218 21 -40 20 -66 -3 -154 -34 -129 -36 -225 -4 -235 7 -3 9 16
6 59 -4 51 0 78 22 143 15 44 28 100 28 125 1 58 -31 119 -83 160 -43 34 -46
44 -29 103 15 57 41 77 94 77 93 0 125 -53 125 -210 l0 -99 43 -40 c62 -58 97
-84 104 -77 4 4 -21 35 -55 69 l-62 63 0 107 c0 136 -13 170 -72 197 -24 11
-62 20 -86 20 -80 0 -85 7 -81 123 l4 102 -25 -2 c-14 -2 -44 -5 -67 -9 -41
-6 -43 -5 -106 57 -63 63 -65 65 -71 129 -10 91 -33 178 -61 225 -29 50 -81
100 -117 114 l-28 10 6 -42 c9 -76 -7 -78 -73 -11 -68 71 -148 127 -224 155
l-54 21 42 -36 c47 -41 88 -101 78 -116 -3 -5 -23 -10 -44 -10 -31 0 -51 10
-97 46 -85 66 -167 105 -233 110 l-56 5 30 -17z m713 -348 c40 -43 66 -104 55
-131 -12 -33 -90 33 -118 97 -36 87 -2 105 63 34z m-98 -166 c11 -40 140 -201
221 -276 42 -39 175 -141 191 -147 11 -4 10 -7 0 -18 -10 -11 -18 -10 -45 4
-102 55 -427 390 -427 440 0 28 7 37 31 37 13 0 22 -12 29 -40z"/>
<path d="M3411 2955 c104 -167 187 -347 242 -520 59 -183 71 -265 71 -485 1
-210 -4 -242 -56 -385 -59 -158 -73 -190 -95 -218 -12 -15 -20 -34 -17 -41 3
-8 -15 -56 -40 -107 -99 -206 -190 -336 -335 -479 -174 -172 -394 -304 -685
-411 -44 -16 -87 -37 -97 -48 -23 -25 -253 -80 -379 -92 -281 -25 -549 4 -770
84 -140 50 -141 50 -65 14 252 -122 605 -185 883 -158 456 44 837 222 1147
535 226 228 389 510 469 812 82 314 79 664 -10 967 -51 175 -177 438 -247 518
-12 14 -19 20 -16 14z"/>
</g>
</svg>
