<svg xmlns="http://www.w3.org/2000/svg" version="1.0" width="1024" height="234" viewBox="-1.395 -1.395 215.359 49.297" id="svg5998"><path d="M59.82 24.012h5.72l-2.28-7.622-3.44 7.622zM56.612 8.024h14.455a442.237 442.237 0 003.627 10.32 616.066 616.066 0 003.813 10.367c.346.903.695 1.811 1.044 2.713l-.323 7.652h-9.413a62.149 62.149 0 00-1.07-3.629 149.5 149.5 0 01-1.208-3.53h-11.11l-3.159 7.16H40.019c2.762-4.68 5.625-9.81 8.599-15.388a478.793 478.793 0 007.995-15.665" id="path4532" fill="#004a91" fill-opacity="1" fill-rule="evenodd" stroke="none"/><path d="M189.886 24.012h5.712l-2.274-7.622-3.438 7.622zm-3.208-15.988h14.456a420.297 420.297 0 003.625 10.32c1.582 4.398 2.852 7.853 3.814 10.367 1.327 3.468 2.667 6.923 3.996 10.365h-12.693a63.167 63.167 0 00-1.07-3.629c-.552-1.58-.956-2.76-1.207-3.53h-11.106l-3.165 7.16h-13.245c2.758-4.68 5.623-9.81 8.6-15.388a491.498 491.498 0 007.995-15.665" id="path4536" fill="#004a91" fill-opacity="1" fill-rule="evenodd" stroke="none"/><path d="M133.217 8.025h15.342c.16 1.053.587 3.762 1.3 8.132.592 3.563.978 6.343 1.167 8.321.618-2.602 1.533-6.04 2.74-10.318a557.25 557.25 0 001.718-6.135h15.713c0 3.346-.086 6.78-.256 10.297-.165 3.511-.344 7.205-.507 11.061-.172 3.857-.258 7.09-.258 9.692h-10.321c0-2.202.074-4.68.23-7.438.375-6.626.56-10.782.56-12.459l-5.621 19.897H144.84l-3.249-19.897a261.466 261.466 0 00-.886 10.09c-.25 3.563-.375 6.834-.375 9.807h-9.804c.4-3.442.818-6.973 1.254-10.597.434-3.626.781-7.13 1.041-10.507.264-3.374.396-6.693.396-9.946" id="path4540" fill="#004a91" fill-opacity="1" fill-rule="evenodd" stroke="none"/><path d="M114.49 8.025h12.499a362.005 362.005 0 00-1.345 31.05H114.57l-1.517-1.395c.032-2.542.147-5.383.342-8.528.234-3.737.473-7.6.72-11.597.248-4 .375-7.175.375-9.53" id="path4544" fill="#004a91" fill-opacity="1" fill-rule="evenodd" stroke="none"/><path d="M2.691 8.025h15.343c.157 1.053.586 3.762 1.3 8.132.587 3.563.975 6.343 1.162 8.321.623-2.602 1.535-6.04 2.744-10.318.995-3.503 1.561-5.55 1.719-6.135H40.67c0 3.346-.087 6.78-.257 10.297-.165 3.511-.343 7.205-.51 11.061-.17 3.857-.255 7.09-.255 9.692H29.326c0-2.202.075-4.68.234-7.438.371-6.626.558-10.782.558-12.459l-5.623 19.897H14.312L11.06 19.178a266.731 266.731 0 00-.884 10.09c-.251 3.563-.37 6.834-.37 9.807H0c.398-3.442.816-6.973 1.251-10.597.435-3.626.784-7.13 1.048-10.507.261-3.374.392-6.693.392-9.946" id="path4548" fill="#004a91" fill-opacity="1" fill-rule="evenodd" stroke="none"/><path d="M112.36 39.376l-1.09 1.085a3.31 3.31 0 00-.7-.078c-.418 0-.778.235-1.088.701-.154.31.032.717.546 1.243.204.206.779.641 1.709 1.322v.155c0 .153.08.7.232 1.632-3.159 0-5.984-.623-8.469-1.867-1.55-.775-3.962-2.438-7.226-4.973-1.446-1.24-2.65-2.378-3.61-3.417-.966-1.04-1.957-2.333-2.992-3.885l-9.015 7.46.235-5.596 5.902-7.149a23.22 23.22 0 01-2.871-3.885 27.06 27.06 0 01-1.4-3.456 19.344 19.344 0 01-.778-3.459c.262-.512.39-.88.39-1.085l-.235-1.01 8.39-8.548 6.685 10.955 12.74-13.987c.263-.31.47-.463.622-.463.36 0 .546.7.546 2.096a28.7 28.7 0 01-.233 3.574c-.156 1.245-.263 2.1-.313 2.567-.465 2.375-2.254 4.838-5.362 7.38-2.068 1.71-3.572 3.188-4.503 4.428.307.716.57 1.29.773 1.71 1.243 2.58 2.305 4.63 3.187 6.137 1.292 2.174 2.516 4.011 3.65 5.515 1.137 1.496 2.568 3.126 4.277 4.898z" id="path4556" fill="#ed1921" fill-opacity="1" stroke="#ed1921" stroke-width="2.141" stroke-linecap="butt" stroke-linejoin="miter" stroke-miterlimit="2.613" stroke-dasharray="none" stroke-opacity="1"/></svg>