<svg xmlns="http://www.w3.org/2000/svg" height="125" width="362.237" xml:space="preserve" version="1.1" id="svg2"><g transform="matrix(1.25 0 0 -1.25 0 125)" id="g10"><g transform="scale(.1)" id="g12" fill-opacity="1" fill-rule="nonzero" stroke="none"><path id="path14" d="M1.43 240.16C36.21 493.402 70.047 746.785 105.082 1000c930.958-.355 1861.898-.078 2792.858-.125-44.29-333.293-89.28-666.461-134.02-999.676C1959.52-.12 1155.15.152 350.777.055 305.727.328 260.68-.56 215.66.687 166.355 3.005 115.348 13.61 74.91 43.395 40.898 67.672 17.992 105.374 8.031 145.64c-7.921 30.77-9.68 62.958-6.601 94.52" fill="#de2424"/><path id="path16" d="M2275.03 763.277c36.1 11.336 73.55 20.332 111.62 20.278 24.54-.43 51.57-7.262 67.31-27.516 17.59-22.98 17.39-54.09 13.1-81.406-7.57-44.613-25.19-86.735-43.56-127.824-29.77-63.805-65.51-125.309-110.84-179.371-19.47-22.657-40.61-44.336-65.53-61.028 23.44 54.317 43.67 110.117 58.32 167.5 13.41 53.379 22.88 108.465 19.84 163.68-2.72 42.422-14.24 86.98-44.83 118.117-1.79 2.496-5.81 4.102-5.43 7.57" fill="#fefbfc"/><path id="path18" d="M2480.36 725.691c34.73 8.157 70.66 15.133 106.43 10.575 20.84-2.727 42.42-14.727 48.86-35.95 8.62-27.671-4.27-55.468-14.61-80.714-55.04-123.707-164.43-217.516-287.87-269.344 46.5 60.617 90.79 123.32 126.61 190.941 16.78 32.309 32.12 65.864 39.82 101.61 4.41 21.273 5.99 44.871-4.79 64.566-3.44 7.156-10.27 11.719-14.45 18.316" fill="#54aadd"/><path id="path20" d="M918.676 708.363c44.207-.07 88.414.184 132.614-.097 11.11-.411 25.13-6.879 25.18-19.672-.94-14.879-3.39-29.684-6.14-44.332-41.1.355-82.193-.028-123.295.152-12.305.102-27.133 4.156-31.93 16.863-5.167 15.52 2.122 31.496 3.571 47.086" fill="#fefbfc"/><path id="path22" d="M1919.87 678.098c1.56 10.297 3.58 20.511 5.1 30.804 40.08-.023 80.16-.05 120.24.024 9.02 0 18.6.562 26.88-3.715 6.19-2.984 11.23-9.43 10.77-16.594-.79-14.441-3.91-28.683-5.43-43.082-40.48-.89-80.98-.051-121.45-.406-10.32-.305-21.71 1.375-29.3 8.969-6.47 6.007-8.15 15.593-6.81 24" fill="#fefbfc"/><path id="path24" d="M374.695 624.543c87.09.586 174.207.074 261.289.254 29.707.48 59.907-2.27 88.188-11.797 20.812-7.008 41.199-19.746 51.391-39.93 9.578-18.418 8.867-40 6.593-60.078-2.898-22.957-11.742-47.871-32.738-60.203-22.723-12.668-48.969-16.66-74.398-20.156 38.093-37.637 75.878-75.567 113.613-113.535-44.895-.098-89.817-.051-134.707-.02-26.27.633-54.629 9.121-71.621 30.293-23.797 33.965-46.371 68.758-70.325 102.598-5.093-44.309-11.007-88.535-16.511-132.793-53.938-.352-107.852-.051-161.762.84 14.215 101.433 27.594 202.992 40.988 304.527" fill="#fefbfc"/><path id="path26" d="M1914.01 613.457c42.04-.277 84.09-1.195 126.13-1.965 20.03-.301 33.27-21.605 29.56-40.277-11.29-83.953-23.7-167.754-35.3-251.66-36.4.031-72.79-.098-109.18.05-17.95.262-35.99 10.879-42.51 28.086-4.5 9.551-3.33 20.254-1.28 30.243 11.19 78.468 21.73 157.023 32.58 235.523" fill="#fefbfc"/><path id="path28" d="M873.531 367.691c11.922 81.661 22.723 163.469 34.164 245.18 39.469-.355 78.91-1.379 118.375-1.504 11.21.203 23.29-2.722 30.45-12.051 7.31-9.328 8.03-22.011 6.24-33.3-11.31-82.348-23.37-164.594-34.75-246.918-35.494-.098-71.014-.02-106.506-.051-14.649-.203-29.809 5.527-38.981 17.246-6.753 8.82-10.703 20.254-8.992 31.398" fill="#fefbfc"/><path id="path30" d="M1155.45 319.047c13.41 97.91 27.42 195.726 40.85 293.625 147.87.351 295.78.047 443.66.148 25.86-.664 52.18 2.321 77.54-4.203 20.25-4.765 40.68-14.445 52.84-31.976 11.34-15.719 13.38-36.254 10.39-54.93-9.29-67.606-18.62-135.191-28.66-202.691-31.42 0-62.83.105-94.25-.051-14.9-.535-30.5 4.336-41.35 14.758-7.8 7.285-10.37 18.593-8.86 28.867 6.87 51.746 13.32 103.543 19.89 155.316 2.48 12.258-9.06 21.836-20.4 22.399-15.2.941-30.43.152-45.62.379-9.24-73.915-19.05-147.774-28.61-221.641-34.77.031-69.55-.047-104.33 0-14.35.41-30.6 4.484-39.04 17.07-6.95 11.035-4.07 24.688-2.75 36.817 5.48 43.164 11.39 86.269 16.54 129.488.92 7.926 1.73 16.43-2.01 23.793-4.46 9.89-16.1 13.941-26.27 13.711-11.83-.156-23.62.914-35.44.812-9.25-73.918-19.06-147.804-28.59-221.691h-155.53" fill="#fefbfc"/><path id="path32" d="M531.957 558.676c23.848.84 47.926.355 71.496-3.539 11.442-1.707 22.422-9.199 26.137-20.457 2.832-10.832.844-22.246 1.43-33.332-35.469.054-70.93.031-106.403.031 2.164 19.129 5.227 38.137 7.34 57.297" fill="#de2424"/></g></g></svg>