<svg xmlns="http://www.w3.org/2000/svg" id="Layer_1" x="0" y="0" viewBox="0 0 81 63" xml:space="preserve"><style>.st0{fill:#000}</style><path class="st0" d="M5.04 43.89s-10.9-15.18 7.32-25.77c0 0 11.54-4.53 17.59 1.55 0 0 5.78-10.91 20.65-11.8 0 0 16.69.07 21.82 14.34l8.5-.02S77.62-1.17 52.14-.01c0 0-12.89-.33-23.08 13.92 0 0-14.55-7.92-25.8 6.93 0 0-8.21 10.91 1.78 23.05"/><path class="st0" d="M24.76 34.64s2.89.94 6.94.01c0 0 .42-5.47-4.87-8.17 0 0-4.88-2.74-12.12-.43 0 0-6.45 2.08-5.82 8.97 0 0 .13 4.17 5.07 6.6 0 0 4.54 1.89 8.67 2.98 0 0 1.6.54 1.79.66.19.13 1.62.95.9 3.13 0 0-.44 1.02-2.49 1.57 0 0-3.45.71-5.53-.66 0 0-1.97-1.05-1.94-4.12 0 0-3.21-1.02-7.09-.01 0 0 .09 4.27 2.34 6.87 0 0 2.27 3.46 9.18 3.55 0 0 4.36.19 7.92-1.42 0 0 3.61-1.5 4.56-4.99l-.01 5.93s2.85.94 7.39.01l.02-9.23 2.55-2.54 8.22 11.78s4 1.13 8.99.02L47.28 38.09l7.99-8.29 7.88 14.25-.02 11.05s3.23 1 7.33.01l.02-11.05 10.27-18.29s-4.12-.96-8.48-.01l-5.4 11.83-5.38-11.85s-4.51-1.1-11.32.03L39.69 36.95l.02-11.2s-3.31-1.35-7.4-.01l-.03 18.24s-.57-3.43-5.41-5.08c0 0-5.04-1.85-6.17-2.11 0 0-3.73-1.21-4.53-2.65 0 0-1.3-1.9 1.9-3.19 0 0 3.05-1.02 5.37.8.01 0 1.1.86 1.32 2.89M8.5 62.89c-.1-.21-.14-.4-.13-.6.01-.19.06-.38.13-.56.2-.11.4-.16.6-.15.2.01.4.06.61.15.11.19.16.38.15.58-.01.19-.06.38-.15.58-.4.18-.81.18-1.21 0m1.82 0c-.1-.21-.14-.4-.13-.6.01-.19.06-.38.13-.56.2-.11.4-.16.6-.15.2.01.4.06.61.15.11.19.16.38.15.58-.01.19-.06.38-.15.58-.4.18-.81.18-1.21 0m1.82 0c-.1-.21-.14-.4-.13-.6.01-.19.06-.38.13-.56.2-.11.4-.16.6-.15.2.01.4.06.61.15.11.19.16.38.15.58-.01.19-.06.38-.15.58-.4.18-.81.18-1.21 0m3.08.04v-3.66H13.9c-.09-.31-.09-.62 0-.93h3.8c.14.31.14.62 0 .93h-1.32v3.66c-.38.12-.77.12-1.16 0m3.63-4.37c.4-.3.8-.3 1.2 0 .25.72.5 1.43.75 2.14.25.71.5 1.43.76 2.14-.2.1-.39.16-.59.17-.2.01-.39-.04-.59-.17l-.26-.78H18.7c-.05.13-.09.26-.13.39l-.12.39c-.38.2-.76.2-1.14 0l1.54-4.28zm.1 2.61h.94l-.48-1.48-.46 1.48zm2.63.25c.34-.09.7-.09 1.09 0 0 .25.08.44.22.57.14.13.34.19.62.19.23 0 .41-.04.53-.12a.34.34 0 00.19-.32c0-.07-.02-.13-.05-.19a.404.404 0 00-.13-.13c-.09-.04-.29-.11-.61-.21-.32-.09-.59-.18-.81-.27-.32-.12-.56-.29-.72-.5-.17-.21-.25-.45-.25-.73 0-.42.16-.76.48-1.01.32-.25.75-.38 1.3-.38.53 0 .95.13 1.27.4.31.26.47.62.47 1.06-.36.08-.71.08-1.07 0-.02-.2-.09-.35-.22-.45-.13-.1-.3-.15-.52-.15-.18 0-.33.04-.44.11-.11.08-.17.17-.17.29 0 .19.27.38.82.56.05.01.09.03.13.04.04.01.07.02.1.03l.04.01c.55.18.9.33 1.05.44.14.11.25.25.32.41.07.16.11.33.11.52 0 .44-.17.79-.5 1.03-.34.25-.81.37-1.42.37-.57 0-1.01-.13-1.31-.39-.32-.25-.49-.65-.52-1.18m6.94 1.53v-4.53c.36-.12.74-.12 1.15 0v4.53c-.38.09-.76.09-1.15 0m1.45-.06v-4.55h2.18c.58 0 1 .1 1.27.31s.41.53.41.96c0 .26-.06.47-.18.65-.11.18-.29.33-.54.46.2.08.34.18.42.31.08.14.13.37.14.69v.16c0 .06.01.13.01.21.01.18.02.33.04.47.02.13.07.24.15.33-.21.1-.41.14-.61.13-.2-.01-.41-.05-.61-.13-.06-.16-.1-.38-.1-.66-.01-.25-.02-.43-.03-.53-.02-.17-.08-.31-.18-.39-.1-.08-.25-.12-.45-.12h-.78v1.7c-.16.07-.33.12-.52.13-.17.01-.38-.04-.62-.13m1.16-2.6H32c.24 0 .41-.04.52-.13.11-.08.17-.22.17-.41 0-.17-.05-.29-.16-.37-.11-.08-.27-.12-.49-.12h-.9v1.03zm7.17 2.64v-3.66h-1.32c-.09-.31-.09-.62 0-.93h3.8c.14.31.14.62 0 .93h-1.32v3.66c-.38.12-.77.12-1.16 0m3.7-4.37c.4-.3.8-.3 1.2 0 .25.72.5 1.43.75 2.14.25.71.5 1.43.76 2.14-.2.1-.39.16-.59.17s-.39-.04-.59-.17l-.26-.78h-1.43c-.05.13-.09.26-.13.39l-.12.39c-.38.2-.76.2-1.14 0L42 58.56zm.1 2.61h.94l-.48-1.48-.46 1.48zm7.03 1.78c-.26-.75-.52-1.51-.78-2.26-.26-.75-.52-1.51-.78-2.26.41-.1.82-.1 1.23 0l.64 2.33c0 .02.01.05.02.08s.02.07.03.11c.08.28.14.52.18.7.01-.04.02-.09.04-.15.01-.06.03-.11.05-.18.02-.1.07-.26.14-.49l.33-1.2.33-1.2c.41-.09.81-.09 1.22 0-.26.75-.52 1.51-.78 2.26-.26.76-.52 1.51-.78 2.26-.39.09-.76.09-1.09 0m3.09.07v-4.68h3.55c.1.32.1.64 0 .96h-2.36v.83h2.16c.1.35.1.66 0 .94h-2.16v1h2.44c.12.28.12.6 0 .96h-3.63zm4.23-.13v-4.55h2.18c.58 0 1 .1 1.27.31s.41.53.41.96c0 .26-.06.47-.18.65-.11.18-.29.33-.54.46.2.08.34.18.42.31.08.14.13.37.14.69 0 .04 0 .1.01.16 0 .06.01.13.01.21.01.18.02.33.04.47.02.13.07.24.14.33-.2.1-.41.14-.61.13-.2-.01-.41-.05-.61-.13-.06-.16-.1-.38-.1-.66-.01-.25-.02-.43-.02-.53-.02-.17-.08-.31-.18-.39-.1-.08-.25-.12-.45-.12h-.78v1.7c-.16.07-.33.12-.52.13-.17.01-.38-.04-.63-.13m1.16-2.6h.87c.24 0 .41-.04.52-.13.11-.08.17-.22.17-.41 0-.17-.05-.29-.16-.37-.11-.08-.27-.12-.49-.12h-.9v1.03zm4.58 2.64v-3.66h-1.32c-.09-.31-.09-.62 0-.93h3.8c.14.31.14.62 0 .93h-1.32v3.66c-.38.12-.77.12-1.16 0m2.83-1.51c.34-.09.7-.09 1.09 0 0 .25.08.44.22.57.14.13.35.19.61.19.23 0 .41-.04.54-.12a.34.34 0 00.19-.32.32.32 0 00-.05-.19.404.404 0 00-.13-.13c-.09-.04-.29-.11-.6-.21-.32-.09-.59-.18-.81-.27-.32-.12-.56-.29-.72-.5-.17-.21-.25-.45-.25-.73 0-.42.16-.76.48-1.01.32-.25.75-.38 1.29-.38.53 0 .95.13 1.27.4.31.26.47.62.47 1.06-.35.08-.71.08-1.07 0-.02-.2-.09-.35-.22-.45-.13-.1-.3-.15-.52-.15-.18 0-.33.04-.44.11-.12.08-.17.17-.17.29 0 .19.27.38.82.56.05.01.09.03.13.04.04.01.07.02.1.03l.04.01c.55.18.9.33 1.05.44.14.11.25.25.32.41.07.16.11.33.11.52 0 .44-.17.79-.5 1.03-.34.25-.81.37-1.42.37-.57 0-1.01-.13-1.31-.39-.32-.25-.49-.65-.52-1.18m4.27 1.5c-.14-.35-.14-.71 0-1.07.37-.1.74-.1 1.12 0 .17.36.17.72 0 1.07-.14.06-.3.09-.48.1-.19.01-.4-.02-.64-.1m.24-1.45c-.04-.29-.09-.59-.13-.89-.04-.3-.08-.59-.13-.89v-1.25c.37-.22.74-.22 1.12 0v1.25c-.04.3-.09.6-.13.89-.04.3-.09.59-.13.89-.2.17-.4.17-.6 0m-27.72-3.58c-.12-.31-.12-.62 0-.93h1.6c.09.16.12.31.1.47-.02.15-.05.31-.1.46h-1.6zm11.44 0c-.12-.31-.12-.62 0-.93h1.61c.09.16.12.31.1.47-.02.15-.05.31-.1.46h-1.61z"/></svg>