<svg xmlns="http://www.w3.org/2000/svg" version="1.0" width="800" height="226.458" id="Layer_1" xml:space="preserve"><path d="M26.23 75.818c0 10.955 8.877 19.826 19.826 19.826s19.83-8.871 19.83-19.826c0-10.949-8.881-19.819-19.83-19.819-10.949 0-19.826 8.87-19.826 19.819" id="path3" fill="#00664a"/><path d="M65.674 149.938v32.216L0 226.458v-32.216l62.995-42.496s1.264-.843-.048-2.29l2.727.482" id="path5" fill="#00664a"/><path d="M65.674 151.644v-32.217L0 75.13v32.216l62.995 42.496s1.264.843-.048 2.29l2.727-.488" id="path7" fill="#00664a"/><path d="M0 76.52V44.297L65.674 0v32.216L2.673 74.712s-1.257.843.055 2.29L0 76.52" id="path9" fill="#00664a"/><path d="M618.146 137.253h-37.594l-5.369 11.721h-16.23l32.435-66.066h18.833l33.76 66.066h-20l-5.835-11.721m-19.538-38.212l-11.457 24.297h23.827l-12.37-24.297z" id="path11" fill="#00664a" fill-rule="evenodd"/><path d="M152.048 102.059c-1.116-8.607-12.167-9.534-19.389-9.534-7.404 0-13.905 3.332-13.905 7.777 0 3.513 2.966 5.455 7.588 6.201l24.175 2.098c12.029 1.949 21.1 6.478 21.193 18.508.064 8.511-8.327 23.151-34.326 23.151-16.108 0-37.266-4.483-37.198-22.104h17.726c.264 10.473 11.698 9.888 19.473 9.888 8.417 0 15.494-2.335 15.748-8.518.357-8.305-5.664-7.514-12.792-8.626l-16.375-1.178c-11.477-1.756-22.583-4.432-22.583-17.941 0-14.712 12.03-20.727 32.76-20.727 13.603 0 33.772 2.316 34.979 21.004h-17.074" id="path13" fill="#00664a"/><path fill="#00664a" id="polyline15" d="M191.241 95.49h-22.39V82.907h62.724V95.49h-22.383v53.484h-17.951V95.49"/><path d="M375.885 109.559c-1.364-10.801-14.046-14.943-23.393-14.943-17.028 0-23.641 12.357-23.641 21.062 0 8.705 6.613 22.193 23.641 22.193 8.704 0 22.213-3.757 23.959-16.622H393.9c-.013 18.88-21.113 28.24-42.055 28.272-18.514.02-40.367-9.122-40.367-32.904 0-24.033 19.968-34.211 40.367-34.211 15.915 0 40.131 5.076 42.811 27.153h-18.771" id="path17" fill="#00664a"/><path fill="#00664a" id="polyline19" d="M450.269 82.907h22.081l-30.351 25.989 32.66 40.078h-23.297l-23.425-28.595-13.657 11.419v17.176h-17.948V82.907h17.948v29.721l35.989-29.721"/><path fill="#00664a" id="polyline21" d="M534.414 82.907h24.616v66.067h-17.864v-46.729h-.171l-19.862 46.729h-9.391l-20.239-46.163h-.17v46.163h-17.864V82.907h24.799l18.453 40.978 17.693-40.978"/><path fill="#00664a" id="polyline23" d="M698.721 82.907h17.397v66.067h-19.523l-35.243-46.079h-.193v46.079h-17.388V82.907h20.813l33.953 44.953h.184V82.907"/><path fill="#00664a" id="polyline25" d="M782.603 82.934H800v66.065h-19.523l-35.244-46.079h-.183v46.079h-17.398V82.934h20.818l33.949 44.953h.184V82.934"/><path d="M267.471 137.472c17.146-.187 23.904-11.67 23.904-21.634 0-9.965-7.623-21.641-23.904-21.641-16.285 0-24.847 11.676-24.847 21.641 0 9.964 5.13 21.846 24.847 21.634m0-55.368c32.19 0 41.643 20.592 41.643 33.844 0 13.374-8.321 34.152-41.643 33.843-35.532-.334-42.779-20.469-42.779-33.843 0-13.374 9.9-33.844 42.779-33.844z" id="path27" fill="#00664a" fill-rule="evenodd"/></svg>